<svg width="172" height="51" viewBox="0 0 172 51" fill="none" xmlns="http://www.w3.org/2000/svg">
<path d="M45.94 43V22H49.18V43H45.94ZM47.38 34.06V30.94H58.21V34.06H47.38ZM47.38 25.12V22H59.56V25.12H47.38ZM62.9432 43V27.25H66.0632V32.2L65.7632 31C65.9832 30.24 66.3532 29.55 66.8732 28.93C67.4132 28.31 68.0232 27.82 68.7032 27.46C69.4032 27.1 70.1232 26.92 70.8632 26.92C71.2032 26.92 71.5232 26.95 71.8232 27.01C72.1432 27.07 72.3932 27.14 72.5732 27.22L71.7632 30.58C71.5232 30.48 71.2532 30.4 70.9532 30.34C70.6732 30.26 70.3932 30.22 70.1132 30.22C69.5732 30.22 69.0532 30.33 68.5532 30.55C68.0732 30.75 67.6432 31.04 67.2632 31.42C66.9032 31.78 66.6132 32.21 66.3932 32.71C66.1732 33.19 66.0632 33.72 66.0632 34.3V43H62.9432ZM80.5628 43.3C79.4428 43.3 78.4628 43.04 77.6228 42.52C76.8028 42 76.1628 41.27 75.7028 40.33C75.2628 39.39 75.0428 38.27 75.0428 36.97V27.25H78.1328V36.13C78.1328 37.05 78.2728 37.85 78.5528 38.53C78.8528 39.19 79.2728 39.7 79.8128 40.06C80.3728 40.42 81.0428 40.6 81.8228 40.6C82.4028 40.6 82.9328 40.51 83.4128 40.33C83.8928 40.13 84.3028 39.86 84.6428 39.52C85.0028 39.18 85.2828 38.77 85.4828 38.29C85.6828 37.81 85.7828 37.29 85.7828 36.73V27.25H88.8728V43H85.7828V39.7L86.3228 39.34C86.0828 40.08 85.6728 40.75 85.0928 41.35C84.5328 41.95 83.8628 42.43 83.0828 42.79C82.3028 43.13 81.4628 43.3 80.5628 43.3ZM93.7169 43V27.25H96.8069V43H93.7169ZM95.2169 23.77C94.5569 23.77 94.0469 23.6 93.6869 23.26C93.3269 22.92 93.1469 22.44 93.1469 21.82C93.1469 21.24 93.3269 20.77 93.6869 20.41C94.0669 20.05 94.5769 19.87 95.2169 19.87C95.8769 19.87 96.3869 20.04 96.7469 20.38C97.1069 20.72 97.2869 21.2 97.2869 21.82C97.2869 22.4 97.0969 22.87 96.7169 23.23C96.3569 23.59 95.8569 23.77 95.2169 23.77ZM103.506 43V23.23H106.596V43H103.506ZM100.236 30.25V27.25H110.256V30.25H100.236ZM113.85 43V22H117.09V43H113.85ZM115.29 34.06V30.94H126.12V34.06H115.29ZM115.29 25.12V22H127.47V25.12H115.29ZM136.198 43.3C135.078 43.3 134.098 43.04 133.258 42.52C132.438 42 131.798 41.27 131.338 40.33C130.898 39.39 130.678 38.27 130.678 36.97V27.25H133.768V36.13C133.768 37.05 133.908 37.85 134.188 38.53C134.488 39.19 134.908 39.7 135.448 40.06C136.008 40.42 136.678 40.6 137.458 40.6C138.038 40.6 138.568 40.51 139.048 40.33C139.528 40.13 139.938 39.86 140.278 39.52C140.638 39.18 140.918 38.77 141.118 38.29C141.318 37.81 141.418 37.29 141.418 36.73V27.25H144.508V43H141.418V39.7L141.958 39.34C141.718 40.08 141.308 40.75 140.728 41.35C140.168 41.95 139.498 42.43 138.718 42.79C137.938 43.13 137.098 43.3 136.198 43.3ZM156.192 43.3C154.572 43.3 153.132 42.96 151.872 42.28C150.632 41.58 149.652 40.63 148.932 39.43C148.232 38.23 147.882 36.85 147.882 35.29C147.882 34.05 148.082 32.92 148.482 31.9C148.882 30.88 149.432 30 150.132 29.26C150.852 28.5 151.702 27.92 152.682 27.52C153.682 27.1 154.762 26.89 155.922 26.89C156.942 26.89 157.892 27.09 158.772 27.49C159.652 27.87 160.412 28.4 161.052 29.08C161.712 29.76 162.212 30.57 162.552 31.51C162.912 32.43 163.082 33.44 163.062 34.54L163.032 35.86H150.162L149.472 33.4H160.362L159.912 33.91V33.19C159.852 32.53 159.632 31.94 159.252 31.42C158.872 30.9 158.392 30.49 157.812 30.19C157.232 29.89 156.602 29.74 155.922 29.74C154.842 29.74 153.932 29.95 153.192 30.37C152.452 30.77 151.892 31.37 151.512 32.17C151.132 32.95 150.942 33.92 150.942 35.08C150.942 36.18 151.172 37.14 151.632 37.96C152.092 38.76 152.742 39.38 153.582 39.82C154.422 40.26 155.392 40.48 156.492 40.48C157.272 40.48 157.992 40.35 158.652 40.09C159.332 39.83 160.062 39.36 160.842 38.68L162.402 40.87C161.922 41.35 161.332 41.77 160.632 42.13C159.952 42.49 159.222 42.78 158.442 43C157.682 43.2 156.932 43.3 156.192 43.3ZM166.48 43V20.8H169.57V43H166.48Z" fill="#070D09"/>
<circle cx="17.5" cy="23.5" r="8.5" fill="#EE2224"/>
<circle cx="8.5" cy="40.5" r="8.5" fill="#FF7B22"/>
<circle cx="26.5" cy="40.5" r="8.5" fill="#FFB520"/>
<path d="M17.0493 12.6301C21.3826 12.9635 30.0493 10.9301 30.0493 0.130121C25.3826 -0.536546 16.2493 1.03012 17.0493 12.6301Z" fill="#6ABC35"/>
<path d="M30.0493 0.130119C30.216 4.46345 27.8493 13.0301 17.0493 12.6301L30.0493 0.130119Z" fill="#A8D034"/>
</svg>
